<?xml version="1.0" encoding="UTF-8" standalone="no"?>
<!DOCTYPE svg PUBLIC "-//W3C//DTD SVG 1.1//EN"
"http://www.w3.org/Graphics/SVG/1.1/DTD/svg11.dtd">


<!-- Page 1 -->
<svg x="0" y="0" width="708" height="262" viewBox="0 0 708 262" version="1.1" xmlns="http://www.w3.org/2000/svg" xmlns:xlink="http://www.w3.org/1999/xlink"
style="margin-left: auto;margin-right: auto;">
<defs>

<style type="text/css"><![CDATA[

.g0_1{
fill: #FF420E;
}
.g1_1{
}
.g2_1{
fill: #C92A39;
}
.g3_1{
fill: #FFFFFF;
}
.g4_1{
fill: #7D2935;
}

]]></style>

</defs>
<path d="M391.9,170.7H677.7v9.1H391.9Z" class="g0_1" />
<path d="M282.9,155.1l-7.1,.9v6.1h54L332,144.9l-7.8,-2.2l-5.6,11.8l-20,1.3v-25l11.2,.3l1.6,8h6.3v-23h-6.3l-1.7,7.5l-11.1,.3V100l18,1l3.2,9.2h7.3L325.9,94H275.7v6.4l7.2,1.3Zm84.3,-49.3l-32.9,51l3,5.3h51.6l2,-20.5L383,139.9L377.7,154l-26.2,2l6.5,-6L390.1,99.2l-2.3,-5.4H340.2l-2.3,18.6l7.9,1.1L350.9,101l21.8,-1.4Zm36,49.3l-7,.9v6.1H431V156l-12.1,-1V138.4c1.5,.1,3.6,.2,6.3,.2c8.8,0,15.6,-2.1,20.4,-6.5c4.8,-4.3,7.1,-10.4,7.1,-18.2c0,-4.5,-.8,-8.3,-2.3,-11.2c-1.6,-3,-4.3,-5.3,-8.1,-6.9c-3.8,-1.6,-9,-2.4,-15.6,-2.4c-2.9,0,-6.1,.2,-9.6,.4c-2.8,.1,-4.7,.2,-5.7,.2H396.5v6.4l6.7,1.3ZM418.8,132V100.1c.4,0,1.1,-.1,2,-.3c1,-.1,2.4,-.2,4.1,-.2c3.9,0,6.9,1.2,8.9,3.5c2,2.4,3,6.1,3,11.1c0,12.2,-4,18.3,-11.9,18.3c-2.8,0,-4.9,-.2,-6.1,-.5m39.4,30.1h30.7v-6l-10.1,-.9V126.9c1,-.7,2.4,-1.4,4.2,-2c1.8,-.6,3.8,-.8,6,-.8c1.7,0,3.2,.2,4.3,.6c1.1,.4,2.2,1,3.2,1.7V110.5c-.9,-.4,-2.1,-.7,-3.7,-.7c-2.7,0,-5.3,.7,-7.7,2.1c-2.3,1.4,-4.2,3,-5.8,4.9c-1.5,1.8,-2.5,3.5,-2.9,4.9h-.3l.3,-7.6v-2.2l-2.6,-2h-.2L458.3,112v7.1l5.4,1.7v34.4l-5.5,.8Zm44.1,-25.2c0,8.2,2.2,14.7,6.6,19.3c4.4,4.6,10.4,6.9,18,6.9c4.8,0,9.2,-1,13.1,-2.9c3.9,-2,7,-5,9.4,-9c2.3,-4,3.4,-9.1,3.4,-15.1c0,-8.3,-2.1,-14.7,-6.5,-19.3c-4.4,-4.6,-10.4,-7,-18.1,-7c-4.7,0,-9,1.1,-13,3.1c-3.9,2,-7.1,5,-9.4,9.1c-2.3,4.1,-3.5,9,-3.5,14.9m25.5,19.8c-3.2,0,-5.6,-1.7,-7,-5.1c-1.5,-3.5,-2.2,-8.7,-2.2,-15.8c0,-13,3,-19.5,8.9,-19.5c3.3,0,5.6,1.7,7,5.1c1.3,3.3,2,8.6,2,15.8c0,6.7,-.7,11.6,-2.1,14.8c-1.5,3.1,-3.7,4.7,-6.6,4.7m35,-1.5l-5.7,.9v6h22.5v-6l-6.7,-.9l6.6,-9.8l2.1,-3.9l2.8,3.9l6.2,9.8l-5,.9v6H614v-6l-5,-.9l-15.6,-20l14,-17.2l5.1,-1v-5.9H592.3V117l5.8,1l-6.6,9.2l-2.3,3.8l-2.3,-3.7L580.5,118l5.7,-1v-5.9H557.6V117l4.6,1l14.9,19.3Zm63,29.7c3.5,0,6.5,-.8,9,-2.4c2.5,-1.6,4.7,-4,6.5,-7.1c1.9,-3.1,3.8,-7.1,5.6,-12.2c.4,-1,2.5,-6.8,6.2,-17.4c3.7,-10.7,6.8,-19.9,9.4,-27.8l4.4,-1v-5.9H646.2V117l5.5,1l-7.1,24.5l-2.2,9.2l-2.8,-9.2L632,118.1l6.5,-1.1v-5.9H611.4V117l4,1.1l17.2,44h5.3c-1.5,4.2,-3.2,7.2,-5,9.2c-1.9,1.9,-4.3,2.9,-7.5,2.9c-1.1,0,-2.4,-.1,-3.8,-.4c-1.4,-.3,-2.3,-.6,-2.8,-.9v11c.7,.3,1.6,.6,3,.7c1.4,.2,2.7,.3,4,.3Z" class="g1_1" />
<path fill-rule="evenodd" d="M239.7,98.8H181.5V69.5h12.1V29.6h-75V69.5h11.3V98.8H88.3V69.5H99.6V29.6h-75V69.5H36.8v72.9L60,162.6H83.7v31.7H71.5v39.9h75.2V194.3H135.2V187H176v7.3H164.7v39.9h75V194.3H227.6V138.7h12.1Z" class="g2_1" />
<path fill-rule="evenodd" d="M181.3,135.4v15.7H163.6Zm52.8,-30.9H175.7V63.9h12.2V35.3H124.2V63.9h11.3v40.6H82.7V63.9H94V35.3H30.2V63.9H42.5v75.9l19.7,17.1H89.4v43.2H77.3v28.6H141V200.1H129.6V181.3h52.1v18.8H170.3v28.6h63.8V200.1H221.8V133.2h12.3Z" class="g3_1" />
<path fill-rule="evenodd" d="M35.6,40.8V58.5H47.8v78.8l16.4,14.1H89.4V133.1H77.3V58.5H88.6V40.8Zm94,0V58.5h11.3v74.6H129.6v18.3h24.9l15.8,-14.1V58.5h12.3V40.8ZM82.7,127.7h12v77.8h-12v17.7h52.8V205.5H124.2V176H187v29.5H175.7v17.7h53V205.5H216.5V127.7h12.2V110h-53v17.7H187v29.2H124.2V127.7h11.3V110H82.7Z" class="g2_1" />
<path fill-rule="evenodd" d="M35.6,40.8V58.5H47.8v78.8l16.4,14.1H89.4v-9.2H72l-9.5,-7.9V49.7H44.6Zm94,0V58.5h11.3v74.6l8.1,7l6.7,-5.8V49.7H138.4ZM77.3,58.5H88.6l-9,-8.8H68.3Zm93,0h12.1l-8.8,-8.8H161.5ZM82.7,110v17.7h12v77.8l9,8.8H91.5l-8.8,-8.8v17.7h52.8l-8.8,-8.9H109.5V118.9h-18Zm93,17.7H187v29.2l9.6,9.5h-82l9.6,9.6H187v29.5l9,8.8H184.6l-8.9,-8.8v17.7h53l-9,-8.9H201.8V118.9H184.7l-9,-8.9Zm-60.4,-8.8l8.9,8.8h11.3l-8.8,-8.8Zm92.3,0l8.9,8.8h12.2l-9,-8.8Zm-78,32.5h24.9l-10.6,-9.2H129.6Z" class="g4_1" />

</svg>
